<svg width="32" height="32" viewBox="0 0 32 32" fill="none" xmlns="http://www.w3.org/2000/svg">
<path d="M5.62136 16.2872C5.62136 14.8616 6.77706 13.7059 8.20269 13.7059C8.91551 13.7059 9.49336 13.1281 9.49336 12.4152C9.49336 11.7024 8.91551 11.1246 8.20269 11.1246C5.35143 11.1246 3.04003 13.436 3.04003 16.2872V24.0312C3.04003 26.8825 5.35143 29.1939 8.20269 29.1939H22.4C25.9641 29.1939 28.8534 26.3046 28.8534 22.7406V16.2872C28.8534 13.436 26.542 11.1246 23.6907 11.1246C22.9779 11.1246 22.4 11.7024 22.4 12.4152C22.4 13.1281 22.9779 13.7059 23.6907 13.7059C25.1163 13.7059 26.272 14.8616 26.272 16.2872V22.7406C26.272 24.879 24.5385 26.6126 22.4 26.6126H8.20269C6.77706 26.6126 5.62136 25.4569 5.62136 24.0312V16.2872Z" fill="#4494F6"/>
<path d="M14.656 19.4124C14.6538 20.1253 15.2298 20.7049 15.9427 20.7071C16.6555 20.7094 17.2351 20.1333 17.2374 19.4205L14.656 19.4124Z" fill="#4494F6"/>
<path d="M20.7665 8.19355C21.269 8.69917 21.2665 9.51639 20.7608 10.0188C20.2552 10.5213 19.438 10.5187 18.9356 10.0131L20.7665 8.19355Z" fill="#4494F6"/>
<path d="M11.2006 8.16034L11.2019 8.15907L15.997 3.39396L20.7488 8.17569L20.756 8.18293L20.757 8.18396L20.758 8.18494L20.7656 8.19261L20.7665 8.19355L18.9356 10.0131L17.2721 8.3392L17.2374 19.4205L14.656 19.4124L14.6908 8.33111L13.0169 9.99453L11.1973 8.16356L11.2006 8.16034Z" fill="#4494F6"/>
<path d="M13.0169 9.99453C12.5113 10.497 11.6941 10.4944 11.1916 9.98883C10.6571 9.45099 10.784 8.4578 11.2019 8.15907L11.2006 8.16034L11.1973 8.16356L13.0169 9.99453Z" fill="#4494F6"/>
</svg>
