<svg width="32" height="32" viewBox="0 0 32 32" fill="none" xmlns="http://www.w3.org/2000/svg">
<path d="M15.0107 4.68821C15.0085 3.9754 15.5845 3.39574 16.2973 3.3935C17.0101 3.39126 17.5898 3.9673 17.592 4.68011L15.0107 4.68821Z" fill="#F78358"/>
<path d="M19.2902 14.0876L17.6268 15.7614L17.592 4.68011L15.0107 4.68821L15.0455 15.7695L13.3716 14.1061C12.8659 13.6037 12.0487 13.6062 11.5463 14.1118C11.0438 14.6174 11.0464 15.4346 11.552 15.9371L11.5552 15.9403L11.5565 15.9416L16.3516 20.7067L21.1034 15.925L21.1106 15.9177L21.1117 15.9167L21.1126 15.9157L21.1203 15.908L21.1212 15.9071L19.2902 14.0876Z" fill="#F78358"/>
<path d="M21.1212 15.9071C21.6236 15.4015 21.6211 14.5843 21.1155 14.0818C20.6099 13.5793 19.7927 13.5819 19.2902 14.0876L21.1212 15.9071Z" fill="#F78358"/>
<path d="M5.976 16.288C5.976 14.8624 7.1317 13.7067 8.55734 13.7067C9.27015 13.7067 9.848 13.1288 9.848 12.416C9.848 11.7032 9.27015 11.1253 8.55734 11.1253C5.70607 11.1253 3.39467 13.4368 3.39467 16.288V24.032C3.39467 26.8833 5.70607 29.1947 8.55734 29.1947H22.7547C26.3187 29.1947 29.208 26.3054 29.208 22.7414V16.288C29.208 13.4368 26.8966 11.1253 24.0453 11.1253C23.3325 11.1253 22.7547 11.7032 22.7547 12.416C22.7547 13.1288 23.3325 13.7067 24.0453 13.7067C25.471 13.7067 26.6267 14.8624 26.6267 16.288V22.7414C26.6267 24.8798 24.8931 26.6133 22.7547 26.6133H8.55734C7.1317 26.6133 5.976 25.4576 5.976 24.032V16.288Z" fill="#F78358"/>
</svg>
