<svg width="245" height="260" viewBox="0 0 245 260" fill="none" xmlns="http://www.w3.org/2000/svg">
<g filter="url(#filter0_d_1_1082)">
<path d="M122.645 3.20985C83.163 22.4795 60.8004 27.777 16.8104 16.6492C16.8104 132.563 45.3689 187.16 122.645 235.038C210 181.281 228.576 124.613 228.479 16.6492C184.614 27.753 160.053 23.7055 122.645 3.20985Z" fill="url(#paint0_linear_1_1082)"/>
<g filter="url(#filter1_f_1_1082)">
<path d="M115.925 197.24L16.8104 16.6497C98.8165 66.49 146.474 63.8913 228.479 16.6497L115.925 197.24Z" fill="url(#paint1_linear_1_1082)"/>
</g>
</g>
<g clip-path="url(#clip0_1_1082)">
<path d="M89.2172 88.2635L106.835 100.009L124.394 75.4278C124.782 74.8841 125.294 74.4408 125.888 74.135C126.482 73.8292 127.14 73.6697 127.808 73.6697C128.476 73.6697 129.135 73.8292 129.728 74.135C130.322 74.4408 130.835 74.8841 131.223 75.4278L148.781 100.009L166.399 88.2635C167.066 87.8199 167.846 87.5764 168.646 87.5619C169.447 87.5473 170.235 87.7623 170.918 88.1814C171.6 88.6004 172.148 89.2061 172.498 89.9268C172.847 90.6475 172.982 91.4531 172.888 92.2484L165.996 150.835C165.876 151.856 165.386 152.796 164.618 153.479C163.85 154.162 162.859 154.539 161.831 154.539H93.7852C92.7578 154.539 91.7662 154.162 90.9984 153.479C90.2306 152.796 89.7401 151.856 89.6199 150.835L82.7281 92.2442C82.635 91.4493 82.7712 90.6443 83.1208 89.9242C83.4703 89.2042 84.0186 88.5992 84.7009 88.1807C85.3831 87.7622 86.1709 87.5476 86.9711 87.5622C87.7714 87.5769 88.5508 87.8202 89.2172 88.2635ZM127.808 129.371C130.033 129.371 132.167 128.487 133.74 126.914C135.314 125.341 136.197 123.207 136.197 120.982C136.197 118.757 135.314 116.623 133.74 115.05C132.167 113.476 130.033 112.593 127.808 112.593C125.583 112.593 123.449 113.476 121.876 115.05C120.303 116.623 119.419 118.757 119.419 120.982C119.419 123.207 120.303 125.341 121.876 126.914C123.449 128.487 125.583 129.371 127.808 129.371Z" fill="black" fill-opacity="0.24"/>
</g>
<g clip-path="url(#clip1_1_1082)">
<path d="M84.0543 81.8101L101.672 93.5552L119.231 68.9744C119.619 68.4307 120.131 67.9874 120.725 67.6816C121.319 67.3758 121.977 67.2163 122.645 67.2163C123.313 67.2163 123.972 67.3758 124.565 67.6816C125.159 67.9874 125.672 68.4307 126.06 68.9744L143.619 93.5552L161.236 81.8101C161.903 81.3665 162.683 81.123 163.483 81.1085C164.284 81.0939 165.072 81.3089 165.755 81.728C166.437 82.147 166.985 82.7527 167.335 83.4734C167.684 84.1941 167.819 84.9997 167.725 85.795L160.833 144.382C160.713 145.402 160.223 146.343 159.455 147.026C158.687 147.708 157.696 148.086 156.668 148.086H88.6223C87.5948 148.086 86.6032 147.708 85.8354 147.026C85.0677 146.343 84.5772 145.402 84.4569 144.382L77.5651 85.7908C77.472 84.9959 77.6083 84.1909 77.9578 83.4708C78.3074 82.7508 78.8557 82.1458 79.5379 81.7273C80.2202 81.3088 81.0079 81.0942 81.8082 81.1088C82.6084 81.1235 83.3878 81.3668 84.0543 81.8101ZM122.645 122.918C124.87 122.918 127.004 122.034 128.577 120.461C130.151 118.887 131.035 116.753 131.035 114.528C131.035 112.304 130.151 110.17 128.577 108.596C127.004 107.023 124.87 106.139 122.645 106.139C120.42 106.139 118.286 107.023 116.713 108.596C115.14 110.17 114.256 112.304 114.256 114.528C114.256 116.753 115.14 118.887 116.713 120.461C118.286 122.034 120.42 122.918 122.645 122.918Z" fill="white"/>
</g>
<defs>
<filter id="filter0_d_1_1082" x="4.71503" y="3.20985" width="235.86" height="256.019" filterUnits="userSpaceOnUse" color-interpolation-filters="sRGB">
<feFlood flood-opacity="0" result="BackgroundImageFix"/>
<feColorMatrix in="SourceAlpha" type="matrix" values="0 0 0 0 0 0 0 0 0 0 0 0 0 0 0 0 0 0 127 0" result="hardAlpha"/>
<feOffset dy="12.0954"/>
<feGaussianBlur stdDeviation="6.0477"/>
<feComposite in2="hardAlpha" operator="out"/>
<feColorMatrix type="matrix" values="0 0 0 0 0 0 0 0 0 0 0 0 0 0 0 0 0 0 0.15 0"/>
<feBlend mode="normal" in2="BackgroundImageFix" result="effect1_dropShadow_1_1082"/>
<feBlend mode="normal" in="SourceGraphic" in2="effect1_dropShadow_1_1082" result="shape"/>
</filter>
<filter id="filter1_f_1_1082" x="0.810425" y="0.649734" width="243.669" height="212.591" filterUnits="userSpaceOnUse" color-interpolation-filters="sRGB">
<feFlood flood-opacity="0" result="BackgroundImageFix"/>
<feBlend mode="normal" in="SourceGraphic" in2="BackgroundImageFix" result="shape"/>
<feGaussianBlur stdDeviation="8" result="effect1_foregroundBlur_1_1082"/>
</filter>
<linearGradient id="paint0_linear_1_1082" x1="-6.70835" y1="6.56968" x2="183.962" y2="130.043" gradientUnits="userSpaceOnUse">
<stop stop-color="#C1C09C"/>
<stop offset="0.521316" stop-color="#F5F191"/>
<stop offset="1" stop-color="#D6EA5E"/>
</linearGradient>
<linearGradient id="paint1_linear_1_1082" x1="2.53117" y1="48.5681" x2="208.32" y2="175.401" gradientUnits="userSpaceOnUse">
<stop stop-color="white" stop-opacity="0.74"/>
<stop offset="0.580003" stop-color="white" stop-opacity="0"/>
<stop offset="1" stop-color="white"/>
</linearGradient>
<clipPath id="clip0_1_1082">
<rect width="100.672" height="100.672" fill="white" transform="translate(77.4719 66.4515)"/>
</clipPath>
<clipPath id="clip1_1_1082">
<rect width="100.672" height="100.672" fill="white" transform="translate(72.3092 59.9978)"/>
</clipPath>
</defs>
</svg>
