<svg width="242" height="261" viewBox="0 0 242 261" fill="none" xmlns="http://www.w3.org/2000/svg">
<g filter="url(#filter0_d_1_1350)">
<path d="M123.354 4.07376C83.8726 23.3434 61.51 28.6409 17.52 17.5131C17.52 133.427 46.0785 188.024 123.354 235.902C210.71 182.144 229.286 125.477 229.189 17.5131C185.323 28.6169 160.762 24.5694 123.354 4.07376Z" fill="url(#paint0_linear_1_1350)"/>
<g filter="url(#filter1_f_1_1350)">
<path d="M116.635 198.104L17.52 17.5139C92.2606 62.9384 138.469 64.8042 208.154 29.0135C213.708 26.161 219.82 32.5464 216.517 37.845L116.635 198.104Z" fill="url(#paint1_linear_1_1350)"/>
</g>
</g>
<path d="M55.9302 118.257V100.188H63.4935C64.8186 100.188 66.0319 100.412 67.1332 100.859C68.2346 101.289 69.1811 101.909 69.9727 102.718C70.7815 103.526 71.401 104.481 71.8313 105.583C72.2615 106.684 72.4766 107.897 72.4766 109.222C72.4766 110.548 72.2615 111.769 71.8313 112.888C71.401 113.989 70.7815 114.944 69.9727 115.753C69.1811 116.545 68.2346 117.164 67.1332 117.612C66.0319 118.042 64.8186 118.257 63.4935 118.257H55.9302ZM60.3185 115.263L59.7248 114.385H63.3645C64.0873 114.385 64.7326 114.265 65.3005 114.024C65.8684 113.766 66.3502 113.413 66.746 112.965C67.159 112.518 67.4774 111.976 67.7011 111.339C67.9248 110.702 68.0367 109.997 68.0367 109.222C68.0367 108.448 67.9248 107.743 67.7011 107.106C67.4774 106.469 67.159 105.927 66.746 105.48C66.3502 105.032 65.8684 104.688 65.3005 104.447C64.7326 104.189 64.0873 104.06 63.3645 104.06H59.6474L60.3185 103.234V115.263ZM75.6635 118.257V104.55H79.7937V118.257H75.6635ZM77.7286 101.84C76.9542 101.84 76.3433 101.659 75.8958 101.298C75.4656 100.919 75.2505 100.386 75.2505 99.6974C75.2505 99.0778 75.4742 98.5702 75.9217 98.1744C76.3691 97.7786 76.9714 97.5807 77.7286 97.5807C78.503 97.5807 79.1053 97.77 79.5355 98.1486C79.9658 98.5099 80.1809 99.0262 80.1809 99.6974C80.1809 100.334 79.9571 100.85 79.5097 101.246C79.0795 101.642 78.4858 101.84 77.7286 101.84ZM88.2949 118.515C86.9526 118.515 85.7652 118.3 84.7327 117.87C83.7174 117.44 82.9085 116.863 82.3062 116.14L84.8101 113.972C85.3436 114.506 85.9459 114.901 86.6171 115.16C87.2882 115.4 87.9249 115.521 88.5272 115.521C88.7682 115.521 88.9833 115.495 89.1726 115.443C89.3619 115.392 89.5168 115.323 89.6372 115.237C89.7749 115.134 89.8781 115.022 89.947 114.901C90.0158 114.764 90.0502 114.609 90.0502 114.437C90.0502 114.093 89.8953 113.826 89.5856 113.637C89.4307 113.551 89.1726 113.447 88.8112 113.327C88.4498 113.206 87.9852 113.069 87.4173 112.914C86.6084 112.707 85.9029 112.466 85.3006 112.191C84.7155 111.898 84.2336 111.563 83.855 111.184C83.5108 110.823 83.2441 110.427 83.0548 109.997C82.8655 109.549 82.7709 109.05 82.7709 108.5C82.7709 107.863 82.9171 107.286 83.2097 106.77C83.5195 106.254 83.9239 105.807 84.4229 105.428C84.9392 105.049 85.5243 104.765 86.1782 104.576C86.8494 104.37 87.5377 104.266 88.2433 104.266C89.0005 104.266 89.7233 104.352 90.4116 104.524C91.1 104.697 91.7367 104.937 92.3218 105.247C92.9241 105.557 93.4576 105.927 93.9222 106.357L91.7539 108.784C91.4441 108.491 91.0914 108.233 90.6956 108.009C90.317 107.768 89.9212 107.579 89.5081 107.441C89.0951 107.304 88.7165 107.235 88.3724 107.235C88.1142 107.235 87.8819 107.261 87.6754 107.312C87.4861 107.347 87.3226 107.416 87.1849 107.519C87.0473 107.605 86.944 107.717 86.8752 107.854C86.8064 107.975 86.7719 108.121 86.7719 108.293C86.7719 108.465 86.815 108.629 86.901 108.784C87.0043 108.939 87.1419 109.068 87.314 109.171C87.4861 109.274 87.7614 109.395 88.14 109.532C88.5186 109.653 89.0349 109.808 89.6888 109.997C90.4977 110.221 91.1946 110.47 91.7797 110.745C92.3648 111.021 92.8295 111.348 93.1736 111.726C93.449 112.019 93.6555 112.363 93.7932 112.759C93.9308 113.137 93.9997 113.551 93.9997 113.998C93.9997 114.876 93.7501 115.659 93.2511 116.347C92.7692 117.018 92.0981 117.552 91.2376 117.947C90.3772 118.326 89.3963 118.515 88.2949 118.515ZM102.469 118.515C101.144 118.515 99.957 118.206 98.9072 117.586C97.8575 116.966 97.0229 116.123 96.4033 115.056C95.801 113.972 95.4999 112.75 95.4999 111.391C95.4999 110.031 95.801 108.818 96.4033 107.751C97.0229 106.667 97.8575 105.815 98.9072 105.196C99.957 104.576 101.144 104.266 102.469 104.266C103.691 104.266 104.81 104.481 105.825 104.912C106.858 105.342 107.675 105.944 108.277 106.719L106.032 109.403C105.791 109.128 105.507 108.87 105.18 108.629C104.853 108.388 104.492 108.199 104.096 108.061C103.7 107.923 103.287 107.854 102.857 107.854C102.203 107.854 101.626 108.009 101.127 108.319C100.628 108.612 100.241 109.025 99.9656 109.558C99.6902 110.092 99.5526 110.702 99.5526 111.391C99.5526 112.045 99.6902 112.638 99.9656 113.172C100.258 113.705 100.654 114.127 101.153 114.437C101.652 114.747 102.22 114.901 102.857 114.901C103.304 114.901 103.717 114.85 104.096 114.747C104.474 114.626 104.818 114.454 105.128 114.23C105.455 114.007 105.756 113.731 106.032 113.404L108.252 116.115C107.667 116.855 106.849 117.44 105.799 117.87C104.767 118.3 103.657 118.515 102.469 118.515ZM116.975 118.515C115.546 118.515 114.273 118.206 113.154 117.586C112.053 116.966 111.175 116.123 110.521 115.056C109.884 113.989 109.566 112.768 109.566 111.391C109.566 110.014 109.884 108.792 110.521 107.725C111.175 106.658 112.053 105.815 113.154 105.196C114.273 104.576 115.546 104.266 116.975 104.266C118.403 104.266 119.668 104.576 120.769 105.196C121.888 105.815 122.765 106.658 123.402 107.725C124.039 108.792 124.357 110.014 124.357 111.391C124.357 112.768 124.039 113.989 123.402 115.056C122.765 116.123 121.888 116.966 120.769 117.586C119.668 118.206 118.403 118.515 116.975 118.515ZM116.975 114.953C117.594 114.953 118.145 114.798 118.627 114.488C119.108 114.179 119.487 113.757 119.762 113.224C120.038 112.69 120.167 112.079 120.15 111.391C120.167 110.702 120.038 110.092 119.762 109.558C119.487 109.007 119.108 108.577 118.627 108.267C118.145 107.958 117.594 107.803 116.975 107.803C116.355 107.803 115.796 107.958 115.297 108.267C114.815 108.577 114.436 109.007 114.161 109.558C113.886 110.092 113.756 110.702 113.774 111.391C113.756 112.079 113.886 112.69 114.161 113.224C114.436 113.757 114.815 114.179 115.297 114.488C115.796 114.798 116.355 114.953 116.975 114.953ZM127.058 118.257V104.55H130.982L131.111 107.338L130.285 107.648C130.474 107.028 130.809 106.469 131.291 105.97C131.79 105.454 132.384 105.041 133.072 104.731C133.761 104.421 134.484 104.266 135.241 104.266C136.273 104.266 137.142 104.481 137.848 104.912C138.553 105.325 139.087 105.953 139.448 106.796C139.81 107.622 139.99 108.637 139.99 109.842V118.257H135.834V110.178C135.834 109.627 135.757 109.171 135.602 108.809C135.447 108.448 135.206 108.181 134.879 108.009C134.57 107.82 134.182 107.734 133.718 107.751C133.356 107.751 133.021 107.811 132.711 107.932C132.401 108.035 132.135 108.199 131.911 108.422C131.687 108.629 131.506 108.87 131.369 109.145C131.248 109.42 131.188 109.722 131.188 110.048V118.257H129.149C128.667 118.257 128.254 118.257 127.91 118.257C127.566 118.257 127.282 118.257 127.058 118.257ZM143.443 118.257V104.55H147.367L147.496 107.338L146.67 107.648C146.859 107.028 147.195 106.469 147.677 105.97C148.176 105.454 148.769 105.041 149.458 104.731C150.146 104.421 150.869 104.266 151.626 104.266C152.659 104.266 153.528 104.481 154.233 104.912C154.939 105.325 155.472 105.953 155.834 106.796C156.195 107.622 156.376 108.637 156.376 109.842V118.257H152.22V110.178C152.22 109.627 152.142 109.171 151.988 108.809C151.833 108.448 151.592 108.181 151.265 108.009C150.955 107.82 150.568 107.734 150.103 107.751C149.742 107.751 149.406 107.811 149.096 107.932C148.787 108.035 148.52 108.199 148.296 108.422C148.072 108.629 147.892 108.87 147.754 109.145C147.634 109.42 147.573 109.722 147.573 110.048V118.257H145.534C145.052 118.257 144.639 118.257 144.295 118.257C143.951 118.257 143.667 118.257 143.443 118.257ZM166.359 118.515C164.845 118.515 163.529 118.214 162.41 117.612C161.291 116.992 160.422 116.158 159.803 115.108C159.183 114.041 158.874 112.828 158.874 111.468C158.874 110.418 159.046 109.455 159.39 108.577C159.734 107.699 160.216 106.942 160.835 106.306C161.455 105.652 162.186 105.153 163.03 104.808C163.89 104.447 164.828 104.266 165.843 104.266C166.807 104.266 167.685 104.438 168.476 104.783C169.285 105.127 169.982 105.609 170.567 106.228C171.152 106.848 171.6 107.579 171.909 108.422C172.219 109.265 172.357 110.186 172.322 111.184L172.297 112.294H161.378L160.784 109.971H168.941L168.502 110.462V109.945C168.468 109.515 168.33 109.136 168.089 108.809C167.865 108.465 167.564 108.199 167.186 108.009C166.807 107.82 166.377 107.725 165.895 107.725C165.224 107.725 164.647 107.863 164.165 108.138C163.701 108.396 163.348 108.784 163.107 109.3C162.866 109.799 162.746 110.418 162.746 111.158C162.746 111.916 162.901 112.578 163.21 113.146C163.537 113.697 164.002 114.127 164.604 114.437C165.224 114.747 165.955 114.901 166.798 114.901C167.383 114.901 167.9 114.815 168.347 114.643C168.812 114.471 169.311 114.179 169.844 113.766L171.78 116.502C171.247 116.966 170.679 117.345 170.077 117.638C169.474 117.93 168.855 118.145 168.218 118.283C167.599 118.438 166.979 118.515 166.359 118.515ZM180.968 118.515C179.643 118.515 178.456 118.206 177.406 117.586C176.356 116.966 175.522 116.123 174.902 115.056C174.3 113.972 173.999 112.75 173.999 111.391C173.999 110.031 174.3 108.818 174.902 107.751C175.522 106.667 176.356 105.815 177.406 105.196C178.456 104.576 179.643 104.266 180.968 104.266C182.19 104.266 183.309 104.481 184.324 104.912C185.356 105.342 186.174 105.944 186.776 106.719L184.53 109.403C184.29 109.128 184.006 108.87 183.679 108.629C183.352 108.388 182.99 108.199 182.594 108.061C182.199 107.923 181.786 107.854 181.355 107.854C180.701 107.854 180.125 108.009 179.626 108.319C179.127 108.612 178.74 109.025 178.464 109.558C178.189 110.092 178.051 110.702 178.051 111.391C178.051 112.045 178.189 112.638 178.464 113.172C178.757 113.705 179.153 114.127 179.652 114.437C180.151 114.747 180.719 114.901 181.355 114.901C181.803 114.901 182.216 114.85 182.594 114.747C182.973 114.626 183.317 114.454 183.627 114.23C183.954 114.007 184.255 113.731 184.53 113.404L186.75 116.115C186.165 116.855 185.348 117.44 184.298 117.87C183.266 118.3 182.156 118.515 180.968 118.515ZM190.156 118.257V101.091H194.286V118.257H190.156ZM187.729 108.164V104.55H196.945V108.164H187.729Z" fill="black" fill-opacity="0.24"/>
<path d="M53.3489 115.676V97.6067H60.9122C62.2373 97.6067 63.4505 97.8304 64.5519 98.2778C65.6533 98.7081 66.5998 99.3276 67.3914 100.136C68.2002 100.945 68.8197 101.9 69.2499 103.002C69.6801 104.103 69.8953 105.316 69.8953 106.641C69.8953 107.966 69.6801 109.188 69.2499 110.307C68.8197 111.408 68.2002 112.363 67.3914 113.172C66.5998 113.964 65.6533 114.583 64.5519 115.031C63.4505 115.461 62.2373 115.676 60.9122 115.676H53.3489ZM57.7372 112.682L57.1435 111.804H60.7831C61.5059 111.804 62.1513 111.684 62.7191 111.443C63.287 111.185 63.7689 110.832 64.1647 110.384C64.5777 109.937 64.8961 109.395 65.1198 108.758C65.3435 108.121 65.4554 107.416 65.4554 106.641C65.4554 105.867 65.3435 105.161 65.1198 104.525C64.8961 103.888 64.5777 103.346 64.1647 102.898C63.7689 102.451 63.287 102.107 62.7191 101.866C62.1513 101.608 61.5059 101.479 60.7831 101.479H57.066L57.7372 100.653V112.682ZM73.0822 115.676V101.969H77.2123V115.676H73.0822ZM75.1473 99.2587C74.3729 99.2587 73.7619 99.0781 73.3145 98.7167C72.8843 98.3381 72.6692 97.8046 72.6692 97.1162C72.6692 96.4967 72.8929 95.9891 73.3403 95.5932C73.7878 95.1974 74.3901 94.9995 75.1473 94.9995C75.9217 94.9995 76.524 95.1888 76.9542 95.5674C77.3844 95.9288 77.5995 96.4451 77.5995 97.1162C77.5995 97.753 77.3758 98.2692 76.9284 98.665C76.4982 99.0608 75.9044 99.2587 75.1473 99.2587ZM85.7136 115.934C84.3713 115.934 83.1839 115.719 82.1513 115.289C81.136 114.859 80.3272 114.282 79.7249 113.559L82.2288 111.391C82.7623 111.924 83.3646 112.32 84.0357 112.578C84.7069 112.819 85.3436 112.94 85.9459 112.94C86.1868 112.94 86.4019 112.914 86.5912 112.862C86.7805 112.811 86.9354 112.742 87.0559 112.656C87.1935 112.553 87.2968 112.441 87.3656 112.32C87.4345 112.183 87.4689 112.028 87.4689 111.856C87.4689 111.511 87.314 111.245 87.0043 111.055C86.8494 110.969 86.5912 110.866 86.2299 110.746C85.8685 110.625 85.4038 110.488 84.8359 110.333C84.0271 110.126 83.3215 109.885 82.7192 109.61C82.1341 109.317 81.6523 108.982 81.2737 108.603C80.9295 108.242 80.6628 107.846 80.4735 107.416C80.2842 106.968 80.1895 106.469 80.1895 105.919C80.1895 105.282 80.3358 104.705 80.6284 104.189C80.9381 103.673 81.3425 103.225 81.8416 102.847C82.3579 102.468 82.943 102.184 83.5969 101.995C84.268 101.788 84.9564 101.685 85.662 101.685C86.4191 101.685 87.1419 101.771 87.8303 101.943C88.5186 102.115 89.1554 102.356 89.7405 102.666C90.3428 102.976 90.8763 103.346 91.3409 103.776L89.1726 106.203C88.8628 105.91 88.51 105.652 88.1142 105.428C87.7356 105.187 87.3398 104.998 86.9268 104.86C86.5138 104.723 86.1352 104.654 85.791 104.654C85.5329 104.654 85.3006 104.68 85.0941 104.731C84.9048 104.766 84.7413 104.834 84.6036 104.938C84.4659 105.024 84.3627 105.136 84.2939 105.273C84.225 105.394 84.1906 105.54 84.1906 105.712C84.1906 105.884 84.2336 106.048 84.3197 106.203C84.4229 106.357 84.5606 106.486 84.7327 106.59C84.9048 106.693 85.1801 106.813 85.5587 106.951C85.9373 107.072 86.4536 107.226 87.1075 107.416C87.9163 107.639 88.6133 107.889 89.1984 108.164C89.7835 108.44 90.2481 108.767 90.5923 109.145C90.8676 109.438 91.0742 109.782 91.2118 110.178C91.3495 110.556 91.4183 110.969 91.4183 111.417C91.4183 112.294 91.1688 113.077 90.6697 113.766C90.1879 114.437 89.5167 114.97 88.6563 115.366C87.7959 115.745 86.815 115.934 85.7136 115.934ZM99.8881 115.934C98.563 115.934 97.3756 115.624 96.3259 115.005C95.2761 114.385 94.4415 113.542 93.822 112.475C93.2197 111.391 92.9185 110.169 92.9185 108.81C92.9185 107.45 93.2197 106.237 93.822 105.17C94.4415 104.086 95.2761 103.234 96.3259 102.614C97.3756 101.995 98.563 101.685 99.8881 101.685C101.11 101.685 102.229 101.9 103.244 102.331C104.276 102.761 105.094 103.363 105.696 104.137L103.45 106.822C103.209 106.547 102.926 106.289 102.599 106.048C102.272 105.807 101.91 105.617 101.514 105.48C101.119 105.342 100.706 105.273 100.275 105.273C99.6214 105.273 99.0449 105.428 98.5458 105.738C98.0468 106.03 97.6596 106.443 97.3842 106.977C97.1089 107.51 96.9712 108.121 96.9712 108.81C96.9712 109.464 97.1089 110.057 97.3842 110.591C97.6768 111.124 98.0726 111.546 98.5717 111.856C99.0707 112.165 99.6386 112.32 100.275 112.32C100.723 112.32 101.136 112.269 101.514 112.165C101.893 112.045 102.237 111.873 102.547 111.649C102.874 111.425 103.175 111.15 103.45 110.823L105.67 113.534C105.085 114.274 104.268 114.859 103.218 115.289C102.186 115.719 101.076 115.934 99.8881 115.934ZM114.393 115.934C112.965 115.934 111.691 115.624 110.573 115.005C109.471 114.385 108.594 113.542 107.94 112.475C107.303 111.408 106.985 110.186 106.985 108.81C106.985 107.433 107.303 106.211 107.94 105.144C108.594 104.077 109.471 103.234 110.573 102.614C111.691 101.995 112.965 101.685 114.393 101.685C115.822 101.685 117.086 101.995 118.188 102.614C119.306 103.234 120.184 104.077 120.821 105.144C121.457 106.211 121.776 107.433 121.776 108.81C121.776 110.186 121.457 111.408 120.821 112.475C120.184 113.542 119.306 114.385 118.188 115.005C117.086 115.624 115.822 115.934 114.393 115.934ZM114.393 112.372C115.013 112.372 115.563 112.217 116.045 111.907C116.527 111.598 116.906 111.176 117.181 110.642C117.456 110.109 117.585 109.498 117.568 108.81C117.585 108.121 117.456 107.51 117.181 106.977C116.906 106.426 116.527 105.996 116.045 105.686C115.563 105.377 115.013 105.222 114.393 105.222C113.774 105.222 113.214 105.377 112.715 105.686C112.233 105.996 111.855 106.426 111.58 106.977C111.304 107.51 111.175 108.121 111.192 108.81C111.175 109.498 111.304 110.109 111.58 110.642C111.855 111.176 112.233 111.598 112.715 111.907C113.214 112.217 113.774 112.372 114.393 112.372ZM124.477 115.676V101.969H128.4L128.529 104.757L127.703 105.067C127.893 104.447 128.228 103.888 128.71 103.389C129.209 102.873 129.803 102.46 130.491 102.15C131.179 101.84 131.902 101.685 132.659 101.685C133.692 101.685 134.561 101.9 135.267 102.331C135.972 102.744 136.506 103.372 136.867 104.215C137.228 105.041 137.409 106.056 137.409 107.261V115.676H133.253V107.596C133.253 107.046 133.176 106.59 133.021 106.228C132.866 105.867 132.625 105.6 132.298 105.428C131.988 105.239 131.601 105.153 131.136 105.17C130.775 105.17 130.439 105.23 130.13 105.351C129.82 105.454 129.553 105.617 129.329 105.841C129.106 106.048 128.925 106.289 128.787 106.564C128.667 106.839 128.607 107.14 128.607 107.467V115.676H126.567C126.086 115.676 125.673 115.676 125.328 115.676C124.984 115.676 124.7 115.676 124.477 115.676ZM140.862 115.676V101.969H144.786L144.915 104.757L144.089 105.067C144.278 104.447 144.613 103.888 145.095 103.389C145.594 102.873 146.188 102.46 146.876 102.15C147.565 101.84 148.288 101.685 149.045 101.685C150.077 101.685 150.946 101.9 151.652 102.331C152.357 102.744 152.891 103.372 153.252 104.215C153.614 105.041 153.794 106.056 153.794 107.261V115.676H149.638V107.596C149.638 107.046 149.561 106.59 149.406 106.228C149.251 105.867 149.01 105.6 148.683 105.428C148.374 105.239 147.986 105.153 147.522 105.17C147.16 105.17 146.825 105.23 146.515 105.351C146.205 105.454 145.939 105.617 145.715 105.841C145.491 106.048 145.31 106.289 145.173 106.564C145.052 106.839 144.992 107.14 144.992 107.467V115.676H142.953C142.471 115.676 142.058 115.676 141.714 115.676C141.37 115.676 141.086 115.676 140.862 115.676ZM163.778 115.934C162.264 115.934 160.947 115.633 159.829 115.031C158.71 114.411 157.841 113.577 157.222 112.527C156.602 111.46 156.292 110.247 156.292 108.887C156.292 107.837 156.464 106.874 156.809 105.996C157.153 105.118 157.635 104.361 158.254 103.724C158.874 103.071 159.605 102.571 160.448 102.227C161.309 101.866 162.247 101.685 163.262 101.685C164.226 101.685 165.103 101.857 165.895 102.201C166.704 102.546 167.401 103.027 167.986 103.647C168.571 104.267 169.018 104.998 169.328 105.841C169.638 106.684 169.775 107.605 169.741 108.603L169.715 109.713H158.796L158.202 107.39H166.359L165.921 107.88V107.364C165.886 106.934 165.749 106.555 165.508 106.228C165.284 105.884 164.983 105.617 164.604 105.428C164.226 105.239 163.795 105.144 163.314 105.144C162.642 105.144 162.066 105.282 161.584 105.557C161.119 105.815 160.767 106.203 160.526 106.719C160.285 107.218 160.164 107.837 160.164 108.577C160.164 109.335 160.319 109.997 160.629 110.565C160.956 111.116 161.421 111.546 162.023 111.856C162.642 112.165 163.374 112.32 164.217 112.32C164.802 112.32 165.318 112.234 165.766 112.062C166.23 111.89 166.729 111.598 167.263 111.185L169.199 113.921C168.665 114.385 168.098 114.764 167.495 115.057C166.893 115.349 166.273 115.564 165.637 115.702C165.017 115.857 164.398 115.934 163.778 115.934ZM178.387 115.934C177.062 115.934 175.874 115.624 174.825 115.005C173.775 114.385 172.94 113.542 172.321 112.475C171.718 111.391 171.417 110.169 171.417 108.81C171.417 107.45 171.718 106.237 172.321 105.17C172.94 104.086 173.775 103.234 174.825 102.614C175.874 101.995 177.062 101.685 178.387 101.685C179.609 101.685 180.727 101.9 181.743 102.331C182.775 102.761 183.593 103.363 184.195 104.137L181.949 106.822C181.708 106.547 181.424 106.289 181.097 106.048C180.77 105.807 180.409 105.617 180.013 105.48C179.617 105.342 179.204 105.273 178.774 105.273C178.12 105.273 177.544 105.428 177.045 105.738C176.546 106.03 176.158 106.443 175.883 106.977C175.608 107.51 175.47 108.121 175.47 108.81C175.47 109.464 175.608 110.057 175.883 110.591C176.176 111.124 176.571 111.546 177.07 111.856C177.569 112.165 178.137 112.32 178.774 112.32C179.222 112.32 179.635 112.269 180.013 112.165C180.392 112.045 180.736 111.873 181.046 111.649C181.373 111.425 181.674 111.15 181.949 110.823L184.169 113.534C183.584 114.274 182.767 114.859 181.717 115.289C180.684 115.719 179.574 115.934 178.387 115.934ZM187.574 115.676V98.5102H191.705V115.676H187.574ZM185.148 105.583V101.969H194.363V105.583H185.148Z" fill="white"/>
<defs>
<filter id="filter0_d_1_1350" x="5.4246" y="4.07376" width="235.86" height="256.019" filterUnits="userSpaceOnUse" color-interpolation-filters="sRGB">
<feFlood flood-opacity="0" result="BackgroundImageFix"/>
<feColorMatrix in="SourceAlpha" type="matrix" values="0 0 0 0 0 0 0 0 0 0 0 0 0 0 0 0 0 0 127 0" result="hardAlpha"/>
<feOffset dy="12.0954"/>
<feGaussianBlur stdDeviation="6.0477"/>
<feComposite in2="hardAlpha" operator="out"/>
<feColorMatrix type="matrix" values="0 0 0 0 0 0 0 0 0 0 0 0 0 0 0 0 0 0 0.15 0"/>
<feBlend mode="normal" in2="BackgroundImageFix" result="effect1_dropShadow_1_1350"/>
<feBlend mode="normal" in="SourceGraphic" in2="effect1_dropShadow_1_1350" result="shape"/>
</filter>
<filter id="filter1_f_1_1350" x="0.720867" y="0.714733" width="233.528" height="214.189" filterUnits="userSpaceOnUse" color-interpolation-filters="sRGB">
<feFlood flood-opacity="0" result="BackgroundImageFix"/>
<feBlend mode="normal" in="SourceGraphic" in2="BackgroundImageFix" result="shape"/>
<feGaussianBlur stdDeviation="8.39956" result="effect1_foregroundBlur_1_1350"/>
</filter>
<linearGradient id="paint0_linear_1_1350" x1="-5.99879" y1="7.43359" x2="184.671" y2="130.907" gradientUnits="userSpaceOnUse">
<stop stop-color="#C19E9C"/>
<stop offset="0.521316" stop-color="#F59191"/>
<stop offset="1" stop-color="#EA5E5E"/>
</linearGradient>
<linearGradient id="paint1_linear_1_1350" x1="3.24074" y1="49.4322" x2="209.03" y2="176.266" gradientUnits="userSpaceOnUse">
<stop stop-color="white" stop-opacity="0.74"/>
<stop offset="0.580003" stop-color="white" stop-opacity="0"/>
<stop offset="1" stop-color="white"/>
</linearGradient>
</defs>
</svg>
