<svg width="46" height="51" viewBox="0 0 46 51" fill="none" xmlns="http://www.w3.org/2000/svg">
<path d="M22.9163 3.32471C15.436 6.95828 11.2011 7.95311 2.87821 5.83115C2.83716 27.7724 8.22365 38.1172 22.8342 47.2073C39.3887 37.0626 42.9251 26.3426 42.9449 5.90611C34.6377 7.99241 29.99 7.21756 22.9163 3.32471Z" fill="url(#paint0_linear_1_1098)"/>
<path d="M23.5386 2.19397L22.9533 1.87186L22.3524 2.16376C18.6425 3.96581 15.8598 5.05048 13.029 5.45881C10.2176 5.86433 7.25827 5.61591 3.19707 4.58049L1.59064 4.17093L1.58754 5.82874C1.56685 16.8879 2.91022 25.1865 6.20285 31.9063C9.50927 38.6543 14.7142 43.6754 22.1524 48.3032L22.8291 48.7242L23.5086 48.3078C31.9319 43.1459 37.1717 37.7553 40.265 30.9502C43.3387 24.1885 44.2256 16.171 44.2356 5.90736L44.2372 4.25081L42.6305 4.65431C38.5664 5.67499 35.5046 5.96805 32.642 5.5787C29.7779 5.18916 27.0061 4.10223 23.5386 2.19397Z" stroke="white" stroke-opacity="0.2" stroke-width="2.58133"/>
<mask id="mask0_1_1098" style="mask-type:alpha" maskUnits="userSpaceOnUse" x="2" y="3" width="41" height="45">
<path d="M22.9163 3.32471C15.436 6.95828 11.2011 7.95311 2.87821 5.83115C2.83716 27.7724 8.22365 38.1172 22.8342 47.2073C39.3887 37.0626 42.9251 26.3426 42.9449 5.90611C34.6377 7.99241 29.99 7.21756 22.9163 3.32471Z" fill="url(#paint1_linear_1_1098)"/>
</mask>
<g mask="url(#mask0_1_1098)">
<rect x="-7.44269" y="2.03467" width="61.952" height="15.488" fill="#F5F8FB"/>
<rect x="-7.44269" y="17.5227" width="61.952" height="15.488" fill="#41479B"/>
<rect x="-7.44269" y="33.0098" width="61.952" height="15.488" fill="#DC251C"/>
</g>
<defs>
<linearGradient id="paint0_linear_1_1098" x1="-1.57008" y1="3.91488" x2="34.478" y2="27.3547" gradientUnits="userSpaceOnUse">
<stop stop-color="#9CC1B4"/>
<stop offset="0.521316" stop-color="#91F5BC"/>
<stop offset="1" stop-color="#5EC0EA"/>
</linearGradient>
<linearGradient id="paint1_linear_1_1098" x1="-1.57008" y1="3.91488" x2="34.478" y2="27.3547" gradientUnits="userSpaceOnUse">
<stop stop-color="#9CC1B4"/>
<stop offset="0.521316" stop-color="#91F5BC"/>
<stop offset="1" stop-color="#5EC0EA"/>
</linearGradient>
</defs>
</svg>
